<?xml version="1.0" encoding="UTF-8" standalone="no"?>
<!DOCTYPE svg PUBLIC "-//W3C//DTD SVG 1.1//EN"
 "http://www.w3.org/Graphics/SVG/1.1/DTD/svg11.dtd">
<!-- Generated by graphviz version 2.40.1 (20161225.0304)
 -->
<!-- Title: %3 Pages: 1 -->
<svg width="219pt" height="226pt"
 viewBox="0.00 0.00 219.00 226.00" xmlns="http://www.w3.org/2000/svg" xmlns:xlink="http://www.w3.org/1999/xlink">
<g id="graph0" class="graph" transform="scale(1 1) rotate(0) translate(4 222)">
<title>%3</title>
<polygon fill="#ffffff" stroke="transparent" points="-4,4 -4,-222 215,-222 215,4 -4,4"/>
<g id="clust1" class="cluster">
<title>cluster_subjects</title>
<g id="a_clust1"><a xlink:href="/erd/subjects" xlink:title="&lt;B&gt;subjects&lt;/B&gt;" target="_top">
<path fill="none" stroke="#000000" stroke-width="3" d="M23.5,-75C23.5,-75 191,-75 191,-75 197,-75 203,-81 203,-87 203,-87 203,-198 203,-198 203,-204 197,-210 191,-210 191,-210 23.5,-210 23.5,-210 17.5,-210 11.5,-204 11.5,-198 11.5,-198 11.5,-87 11.5,-87 11.5,-81 17.5,-75 23.5,-75"/>
<text text-anchor="start" x="78.75" y="-195.8" font-family="Helvetica,sans-Serif" font-weight="bold" font-size="14.00" fill="#000000">subjects</text>
</a>
</g>
</g>
<g id="clust2" class="cluster">
<title>cluster_experimenters</title>
<g id="a_clust2"><a xlink:href="/erd/experimenters" xlink:title="&lt;B&gt;experimenters&lt;/B&gt;" target="_top">
<path fill="none" stroke="#000000" stroke-width="3" d="M12,-8C12,-8 100,-8 100,-8 106,-8 112,-14 112,-20 112,-20 112,-55 112,-55 112,-61 106,-67 100,-67 100,-67 12,-67 12,-67 6,-67 0,-61 0,-55 0,-55 0,-20 0,-20 0,-14 6,-8 12,-8"/>
<text text-anchor="start" x="8" y="-52.8" font-family="Helvetica,sans-Serif" font-weight="bold" font-size="14.00" fill="#000000">experimenters</text>
</a>
</g>
</g>
<!-- subjects.FlyStock -->
<g id="node1" class="node">
<title>subjects.FlyStock</title>
<g id="a_node1"><a xlink:href="/table/subjects/FlyStock" xlink:title="FlyStock" target="_top">
<path fill="#006400" stroke="#006400" stroke-width="1.5" d="M146.3333,-102.5C146.3333,-102.5 188.6667,-102.5 188.6667,-102.5 191.8333,-102.5 195,-105.6667 195,-108.8333 195,-108.8333 195,-115.1667 195,-115.1667 195,-118.3333 191.8333,-121.5 188.6667,-121.5 188.6667,-121.5 146.3333,-121.5 146.3333,-121.5 143.1667,-121.5 140,-118.3333 140,-115.1667 140,-115.1667 140,-108.8333 140,-108.8333 140,-105.6667 143.1667,-102.5 146.3333,-102.5"/>
<text text-anchor="middle" x="167.5" y="-109.5" font-family="Helvetica,sans-Serif" font-size="10.00" fill="#ffffff">FlyStock</text>
</a>
</g>
</g>
<!-- subjects.FlyGenotype -->
<g id="node2" class="node">
<title>subjects.FlyGenotype</title>
<g id="a_node2"><a xlink:href="/table/subjects/FlyGenotype" xlink:title="FlyGenotype" target="_top">
<path fill="#006400" stroke="#006400" stroke-width="1.5" d="M25.8333,-159.5C25.8333,-159.5 86.1667,-159.5 86.1667,-159.5 89.3333,-159.5 92.5,-162.6667 92.5,-165.8333 92.5,-165.8333 92.5,-172.1667 92.5,-172.1667 92.5,-175.3333 89.3333,-178.5 86.1667,-178.5 86.1667,-178.5 25.8333,-178.5 25.8333,-178.5 22.6667,-178.5 19.5,-175.3333 19.5,-172.1667 19.5,-172.1667 19.5,-165.8333 19.5,-165.8333 19.5,-162.6667 22.6667,-159.5 25.8333,-159.5"/>
<text text-anchor="middle" x="56" y="-166.5" font-family="Helvetica,sans-Serif" font-size="10.00" fill="#ffffff">FlyGenotype</text>
</a>
</g>
</g>
<!-- subjects.FlyGenotype&#45;&gt;subjects.FlyStock -->
<g id="edge1" class="edge">
<title>subjects.FlyGenotype&#45;&gt;subjects.FlyStock</title>
<path fill="none" stroke="#006400" stroke-width="1.5" d="M89,-159.3707C89,-144.2144 89,-116.5 89,-116.5 89,-116.5 132.6028,-116.5 132.6028,-116.5"/>
<polygon fill="#006400" stroke="#006400" stroke-width="1.5" points="132.6028,-118.9501 139.6028,-116.5 132.6028,-114.0501 132.6028,-118.9501"/>
</g>
<!-- experimenters.Experimenter -->
<g id="node3" class="node">
<title>experimenters.Experimenter</title>
<g id="a_node3"><a xlink:href="/table/experimenters/Experimenter" xlink:title="Experimenter" target="_top">
<path fill="#006400" stroke="#006400" stroke-width="1.5" d="M24.3333,-16.5C24.3333,-16.5 87.6667,-16.5 87.6667,-16.5 90.8333,-16.5 94,-19.6667 94,-22.8333 94,-22.8333 94,-29.1667 94,-29.1667 94,-32.3333 90.8333,-35.5 87.6667,-35.5 87.6667,-35.5 24.3333,-35.5 24.3333,-35.5 21.1667,-35.5 18,-32.3333 18,-29.1667 18,-29.1667 18,-22.8333 18,-22.8333 18,-19.6667 21.1667,-16.5 24.3333,-16.5"/>
<text text-anchor="middle" x="56" y="-23.5" font-family="Helvetica,sans-Serif" font-size="10.00" fill="#ffffff">Experimenter</text>
</a>
</g>
</g>
<!-- experimenters.Experimenter&#45;&gt;subjects.FlyStock -->
<g id="edge2" class="edge">
<title>experimenters.Experimenter&#45;&gt;subjects.FlyStock</title>
<path fill="none" stroke="#006400" stroke-width="1.5" d="M94.2308,-26C126.6763,-26 168,-26 168,-26 168,-26 168,-95.4679 168,-95.4679"/>
<polygon fill="#006400" stroke="#006400" stroke-width="1.5" points="165.5501,-95.4679 168,-102.4679 170.4501,-95.4679 165.5501,-95.4679"/>
</g>
<!-- subjects.FlyOrigin -->
<g id="node4" class="node">
<title>subjects.FlyOrigin</title>
<g id="a_node4"><a xlink:href="/table/subjects/FlyOrigin" xlink:title="FlyOrigin" target="_top">
<path fill="#006400" stroke="#006400" stroke-width="1.5" d="M33.8333,-121.5C33.8333,-121.5 78.1667,-121.5 78.1667,-121.5 81.3333,-121.5 84.5,-124.6667 84.5,-127.8333 84.5,-127.8333 84.5,-134.1667 84.5,-134.1667 84.5,-137.3333 81.3333,-140.5 78.1667,-140.5 78.1667,-140.5 33.8333,-140.5 33.8333,-140.5 30.6667,-140.5 27.5,-137.3333 27.5,-134.1667 27.5,-134.1667 27.5,-127.8333 27.5,-127.8333 27.5,-124.6667 30.6667,-121.5 33.8333,-121.5"/>
<text text-anchor="middle" x="56" y="-128.5" font-family="Helvetica,sans-Serif" font-size="10.00" fill="#ffffff">FlyOrigin</text>
</a>
</g>
</g>
<!-- subjects.FlyOrigin&#45;&gt;subjects.FlyStock -->
<g id="edge3" class="edge">
<title>subjects.FlyOrigin&#45;&gt;subjects.FlyStock</title>
<path fill="none" stroke="#006400" stroke-width="1.5" d="M66,-121.0548C66,-116.4578 66,-112 66,-112 66,-112 132.7647,-112 132.7647,-112"/>
<polygon fill="#006400" stroke="#006400" stroke-width="1.5" points="132.7647,-114.4501 139.7647,-112 132.7646,-109.5501 132.7647,-114.4501"/>
</g>
<!-- subjects.FlyCross -->
<g id="node5" class="node">
<title>subjects.FlyCross</title>
<g id="a_node5"><a xlink:href="/table/subjects/FlyCross" xlink:title="FlyCross" target="_top">
<path fill="#006400" stroke="#006400" stroke-width="1.5" d="M34.3333,-83.5C34.3333,-83.5 77.6667,-83.5 77.6667,-83.5 80.8333,-83.5 84,-86.6667 84,-89.8333 84,-89.8333 84,-96.1667 84,-96.1667 84,-99.3333 80.8333,-102.5 77.6667,-102.5 77.6667,-102.5 34.3333,-102.5 34.3333,-102.5 31.1667,-102.5 28,-99.3333 28,-96.1667 28,-96.1667 28,-89.8333 28,-89.8333 28,-86.6667 31.1667,-83.5 34.3333,-83.5"/>
<text text-anchor="middle" x="56" y="-90.5" font-family="Helvetica,sans-Serif" font-size="10.00" fill="#ffffff">FlyCross</text>
</a>
</g>
</g>
<!-- subjects.FlyCross&#45;&gt;subjects.FlyStock -->
<g id="edge4" class="edge">
<title>subjects.FlyCross&#45;&gt;subjects.FlyStock</title>
<path fill="none" stroke="#006400" stroke-width="1.5" d="M47,-102.591C47,-105.2875 47,-107.5 47,-107.5 47,-107.5 132.8549,-107.5 132.8549,-107.5"/>
<polygon fill="#006400" stroke="#006400" stroke-width="1.5" points="132.8549,-109.9501 139.8549,-107.5 132.8548,-105.0501 132.8549,-109.9501"/>
</g>
</g>
</svg>
