<?xml version="1.0" encoding="UTF-8" standalone="no"?>
<!DOCTYPE svg PUBLIC "-//W3C//DTD SVG 1.1//EN"
 "http://www.w3.org/Graphics/SVG/1.1/DTD/svg11.dtd">
<!-- Generated by graphviz version 2.40.1 (20161225.0304)
 -->
<!-- Title: %3 Pages: 1 -->
<svg width="98pt" height="83pt"
 viewBox="0.00 0.00 98.00 83.00" xmlns="http://www.w3.org/2000/svg" xmlns:xlink="http://www.w3.org/1999/xlink">
<g id="graph0" class="graph" transform="scale(1 1) rotate(0) translate(4 79)">
<title>%3</title>
<polygon fill="#ffffff" stroke="transparent" points="-4,4 -4,-79 94,-79 94,4 -4,4"/>
<g id="clust1" class="cluster">
<title>cluster_university6</title>
<g id="a_clust1"><a xlink:href="/erd/university6" xlink:title="&lt;B&gt;university6&lt;/B&gt;" target="_top">
<path fill="none" stroke="#000000" stroke-width="3" d="M12,-8C12,-8 78,-8 78,-8 84,-8 90,-14 90,-20 90,-20 90,-55 90,-55 90,-61 84,-67 78,-67 78,-67 12,-67 12,-67 6,-67 0,-61 0,-55 0,-55 0,-20 0,-20 0,-14 6,-8 12,-8"/>
<text text-anchor="start" x="8" y="-52.8" font-family="Helvetica,sans-Serif" font-weight="bold" font-size="14.00" fill="#000000">university6</text>
</a>
</g>
</g>
<!-- university6.Student -->
<g id="node1" class="node">
<title>university6.Student</title>
<g id="a_node1"><a xlink:href="/table/university6/Student" xlink:title="Student" target="_top">
<path fill="#006400" stroke="#006400" stroke-width="1.5" d="M24.3333,-16.5C24.3333,-16.5 65.6667,-16.5 65.6667,-16.5 68.8333,-16.5 72,-19.6667 72,-22.8333 72,-22.8333 72,-29.1667 72,-29.1667 72,-32.3333 68.8333,-35.5 65.6667,-35.5 65.6667,-35.5 24.3333,-35.5 24.3333,-35.5 21.1667,-35.5 18,-32.3333 18,-29.1667 18,-29.1667 18,-22.8333 18,-22.8333 18,-19.6667 21.1667,-16.5 24.3333,-16.5"/>
<text text-anchor="middle" x="45" y="-23.5" font-family="Helvetica,sans-Serif" font-size="10.00" fill="#ffffff">Student</text>
</a>
</g>
</g>
</g>
</svg>
