<?xml version="1.0" encoding="UTF-8" standalone="no"?>
<!DOCTYPE svg PUBLIC "-//W3C//DTD SVG 1.1//EN"
 "http://www.w3.org/Graphics/SVG/1.1/DTD/svg11.dtd">
<!-- Generated by graphviz version 2.40.1 (20161225.0304)
 -->
<!-- Title: %3 Pages: 1 -->
<svg width="777pt" height="275pt"
 viewBox="0.00 0.00 777.00 275.00" xmlns="http://www.w3.org/2000/svg" xmlns:xlink="http://www.w3.org/1999/xlink">
<g id="graph0" class="graph" transform="scale(1 1) rotate(0) translate(4 271)">
<title>%3</title>
<polygon fill="#ffffff" stroke="transparent" points="-4,4 -4,-271 773,-271 773,4 -4,4"/>
<g id="clust1" class="cluster">
<title>cluster_equipment</title>
<g id="a_clust1"><a xlink:href="/erd/equipment" xlink:title="&lt;B&gt;equipment&lt;/B&gt;" target="_top">
<path fill="none" stroke="#000000" stroke-width="3" d="M21.5,-8C21.5,-8 84.5,-8 84.5,-8 90.5,-8 96.5,-14 96.5,-20 96.5,-20 96.5,-55 96.5,-55 96.5,-61 90.5,-67 84.5,-67 84.5,-67 21.5,-67 21.5,-67 15.5,-67 9.5,-61 9.5,-55 9.5,-55 9.5,-20 9.5,-20 9.5,-14 15.5,-8 21.5,-8"/>
<text text-anchor="start" x="17.5" y="-52.8" font-family="Helvetica,sans-Serif" font-weight="bold" font-size="14.00" fill="#000000">equipment</text>
</a>
</g>
</g>
<g id="clust2" class="cluster">
<title>cluster_imaging</title>
<g id="a_clust2"><a xlink:href="/erd/imaging" xlink:title="&lt;B&gt;imaging&lt;/B&gt;" target="_top">
<path fill="none" stroke="#000000" stroke-width="3" d="M236,-8C236,-8 749,-8 749,-8 755,-8 761,-14 761,-20 761,-20 761,-55 761,-55 761,-61 755,-67 749,-67 749,-67 236,-67 236,-67 230,-67 224,-61 224,-55 224,-55 224,-20 224,-20 224,-14 230,-8 236,-8"/>
<text text-anchor="start" x="465.5" y="-52.8" font-family="Helvetica,sans-Serif" font-weight="bold" font-size="14.00" fill="#000000">imaging</text>
</a>
</g>
</g>
<g id="clust3" class="cluster">
<title>cluster_subjects</title>
<g id="a_clust3"><a xlink:href="/erd/subjects" xlink:title="&lt;B&gt;subjects&lt;/B&gt;" target="_top">
<path fill="none" stroke="#000000" stroke-width="3" d="M20,-75C20,-75 312,-75 312,-75 318,-75 324,-81 324,-87 324,-87 324,-180 324,-180 324,-186 318,-192 312,-192 312,-192 20,-192 20,-192 14,-192 8,-186 8,-180 8,-180 8,-87 8,-87 8,-81 14,-75 20,-75"/>
<text text-anchor="start" x="137.5" y="-177.8" font-family="Helvetica,sans-Serif" font-weight="bold" font-size="14.00" fill="#000000">subjects</text>
</a>
</g>
</g>
<g id="clust4" class="cluster">
<title>cluster_university6</title>
<g id="a_clust4"><a xlink:href="/erd/university6" xlink:title="&lt;B&gt;university6&lt;/B&gt;" target="_top">
<path fill="none" stroke="#000000" stroke-width="3" d="M19.5,-200C19.5,-200 85.5,-200 85.5,-200 91.5,-200 97.5,-206 97.5,-212 97.5,-212 97.5,-247 97.5,-247 97.5,-253 91.5,-259 85.5,-259 85.5,-259 19.5,-259 19.5,-259 13.5,-259 7.5,-253 7.5,-247 7.5,-247 7.5,-212 7.5,-212 7.5,-206 13.5,-200 19.5,-200"/>
<text text-anchor="start" x="15.5" y="-244.8" font-family="Helvetica,sans-Serif" font-weight="bold" font-size="14.00" fill="#000000">university6</text>
</a>
</g>
</g>
<!-- equipment.System -->
<g id="node1" class="node">
<title>equipment.System</title>
<g id="a_node1"><a xlink:href="/table/equipment/System" xlink:title="System" target="_top">
<path fill="#006400" stroke="#006400" stroke-width="1.5" d="M31.8333,-16.5C31.8333,-16.5 73.1667,-16.5 73.1667,-16.5 76.3333,-16.5 79.5,-19.6667 79.5,-22.8333 79.5,-22.8333 79.5,-29.1667 79.5,-29.1667 79.5,-32.3333 76.3333,-35.5 73.1667,-35.5 73.1667,-35.5 31.8333,-35.5 31.8333,-35.5 28.6667,-35.5 25.5,-32.3333 25.5,-29.1667 25.5,-29.1667 25.5,-22.8333 25.5,-22.8333 25.5,-19.6667 28.6667,-16.5 31.8333,-16.5"/>
<text text-anchor="middle" x="52.5" y="-23.5" font-family="Helvetica,sans-Serif" font-size="10.00" fill="#ffffff">System</text>
</a>
</g>
</g>
<!-- imaging.RawTwoPhotonData -->
<g id="node2" class="node">
<title>imaging.RawTwoPhotonData</title>
<g id="a_node2"><a xlink:href="/table/imaging/RawTwoPhotonData" xlink:title="RawTwoPhotonData" target="_top">
<path fill="#000080" stroke="#000080" stroke-width="1.5" d="M387.3333,-16.5C387.3333,-16.5 482.6667,-16.5 482.6667,-16.5 485.8333,-16.5 489,-19.6667 489,-22.8333 489,-22.8333 489,-29.1667 489,-29.1667 489,-32.3333 485.8333,-35.5 482.6667,-35.5 482.6667,-35.5 387.3333,-35.5 387.3333,-35.5 384.1667,-35.5 381,-32.3333 381,-29.1667 381,-29.1667 381,-22.8333 381,-22.8333 381,-19.6667 384.1667,-16.5 387.3333,-16.5"/>
<text text-anchor="middle" x="435" y="-23.5" font-family="Helvetica,sans-Serif" font-size="10.00" fill="#ffffff">RawTwoPhotonData</text>
</a>
</g>
</g>
<!-- imaging.MotionCorrectedData -->
<g id="node3" class="node">
<title>imaging.MotionCorrectedData</title>
<g id="a_node3"><a xlink:href="/table/imaging/MotionCorrectedData" xlink:title="MotionCorrectedData" target="_top">
<path fill="#68228b" stroke="#68228b" stroke-width="1.5" d="M531.3333,-16.5C531.3333,-16.5 630.6667,-16.5 630.6667,-16.5 633.8333,-16.5 637,-19.6667 637,-22.8333 637,-22.8333 637,-29.1667 637,-29.1667 637,-32.3333 633.8333,-35.5 630.6667,-35.5 630.6667,-35.5 531.3333,-35.5 531.3333,-35.5 528.1667,-35.5 525,-32.3333 525,-29.1667 525,-29.1667 525,-22.8333 525,-22.8333 525,-19.6667 528.1667,-16.5 531.3333,-16.5"/>
<text text-anchor="middle" x="581" y="-23.5" font-family="Helvetica,sans-Serif" font-size="10.00" fill="#ffffff">MotionCorrectedData</text>
</a>
</g>
</g>
<!-- imaging.RawTwoPhotonData&#45;&gt;imaging.MotionCorrectedData -->
<g id="edge1" class="edge">
<title>imaging.RawTwoPhotonData&#45;&gt;imaging.MotionCorrectedData</title>
<path fill="none" stroke="#000080" stroke-width="1.5" d="M489.365,-26C489.365,-26 517.6374,-26 517.6374,-26"/>
<polygon fill="#000080" stroke="#000080" stroke-width="1.5" points="517.6375,-28.4501 524.6374,-26 517.6374,-23.5501 517.6375,-28.4501"/>
</g>
<!-- imaging.ExtractedData -->
<g id="node4" class="node">
<title>imaging.ExtractedData</title>
<g id="a_node4"><a xlink:href="/table/imaging/ExtractedData" xlink:title="ExtractedData" target="_top">
<path fill="#68228b" stroke="#68228b" stroke-width="1.5" d="M679.3333,-16.5C679.3333,-16.5 746.6667,-16.5 746.6667,-16.5 749.8333,-16.5 753,-19.6667 753,-22.8333 753,-22.8333 753,-29.1667 753,-29.1667 753,-32.3333 749.8333,-35.5 746.6667,-35.5 746.6667,-35.5 679.3333,-35.5 679.3333,-35.5 676.1667,-35.5 673,-32.3333 673,-29.1667 673,-29.1667 673,-22.8333 673,-22.8333 673,-19.6667 676.1667,-16.5 679.3333,-16.5"/>
<text text-anchor="middle" x="713" y="-23.5" font-family="Helvetica,sans-Serif" font-size="10.00" fill="#ffffff">ExtractedData</text>
</a>
</g>
</g>
<!-- imaging.MotionCorrectedData&#45;&gt;imaging.ExtractedData -->
<g id="edge2" class="edge">
<title>imaging.MotionCorrectedData&#45;&gt;imaging.ExtractedData</title>
<path fill="none" stroke="#68228b" stroke-width="1.5" d="M637.3628,-26C637.3628,-26 665.7865,-26 665.7865,-26"/>
<polygon fill="#68228b" stroke="#68228b" stroke-width="1.5" points="665.7865,-28.4501 672.7865,-26 665.7864,-23.5501 665.7865,-28.4501"/>
</g>
<!-- imaging.TwoPhotonRecording -->
<g id="node5" class="node">
<title>imaging.TwoPhotonRecording</title>
<g id="a_node5"><a xlink:href="/table/imaging/TwoPhotonRecording" xlink:title="TwoPhotonRecording" target="_top">
<path fill="#006400" stroke="#006400" stroke-width="1.5" d="M238.3333,-16.5C238.3333,-16.5 338.6667,-16.5 338.6667,-16.5 341.8333,-16.5 345,-19.6667 345,-22.8333 345,-22.8333 345,-29.1667 345,-29.1667 345,-32.3333 341.8333,-35.5 338.6667,-35.5 338.6667,-35.5 238.3333,-35.5 238.3333,-35.5 235.1667,-35.5 232,-32.3333 232,-29.1667 232,-29.1667 232,-22.8333 232,-22.8333 232,-19.6667 235.1667,-16.5 238.3333,-16.5"/>
<text text-anchor="middle" x="288.5" y="-23.5" font-family="Helvetica,sans-Serif" font-size="10.00" fill="#ffffff">TwoPhotonRecording</text>
</a>
</g>
</g>
<!-- imaging.TwoPhotonRecording&#45;&gt;imaging.RawTwoPhotonData -->
<g id="edge3" class="edge">
<title>imaging.TwoPhotonRecording&#45;&gt;imaging.RawTwoPhotonData</title>
<path fill="none" stroke="#006400" stroke-width="1.5" d="M345.1407,-26C345.1407,-26 373.9154,-26 373.9154,-26"/>
<polygon fill="#006400" stroke="#006400" stroke-width="1.5" points="373.9154,-28.4501 380.9154,-26 373.9154,-23.5501 373.9154,-28.4501"/>
</g>
<!-- subjects.FlyCross -->
<g id="node6" class="node">
<title>subjects.FlyCross</title>
<g id="a_node6"><a xlink:href="/table/subjects/FlyCross" xlink:title="FlyCross" target="_top">
<path fill="#006400" stroke="#006400" stroke-width="1.5" d="M142.8333,-121.5C142.8333,-121.5 186.1667,-121.5 186.1667,-121.5 189.3333,-121.5 192.5,-124.6667 192.5,-127.8333 192.5,-127.8333 192.5,-134.1667 192.5,-134.1667 192.5,-137.3333 189.3333,-140.5 186.1667,-140.5 186.1667,-140.5 142.8333,-140.5 142.8333,-140.5 139.6667,-140.5 136.5,-137.3333 136.5,-134.1667 136.5,-134.1667 136.5,-127.8333 136.5,-127.8333 136.5,-124.6667 139.6667,-121.5 142.8333,-121.5"/>
<text text-anchor="middle" x="164.5" y="-128.5" font-family="Helvetica,sans-Serif" font-size="10.00" fill="#ffffff">FlyCross</text>
</a>
</g>
</g>
<!-- subjects.FlyStock -->
<g id="node7" class="node">
<title>subjects.FlyStock</title>
<g id="a_node7"><a xlink:href="/table/subjects/FlyStock" xlink:title="FlyStock" target="_top">
<path fill="#006400" stroke="#006400" stroke-width="1.5" d="M267.3333,-131.5C267.3333,-131.5 309.6667,-131.5 309.6667,-131.5 312.8333,-131.5 316,-134.6667 316,-137.8333 316,-137.8333 316,-144.1667 316,-144.1667 316,-147.3333 312.8333,-150.5 309.6667,-150.5 309.6667,-150.5 267.3333,-150.5 267.3333,-150.5 264.1667,-150.5 261,-147.3333 261,-144.1667 261,-144.1667 261,-137.8333 261,-137.8333 261,-134.6667 264.1667,-131.5 267.3333,-131.5"/>
<text text-anchor="middle" x="288.5" y="-138.5" font-family="Helvetica,sans-Serif" font-size="10.00" fill="#ffffff">FlyStock</text>
</a>
</g>
</g>
<!-- subjects.FlyCross&#45;&gt;subjects.FlyStock -->
<g id="edge4" class="edge">
<title>subjects.FlyCross&#45;&gt;subjects.FlyStock</title>
<path fill="none" stroke="#006400" stroke-width="1.5" d="M192.6375,-136C192.6375,-136 253.901,-136 253.901,-136"/>
<polygon fill="#006400" stroke="#006400" stroke-width="1.5" points="253.901,-138.4501 260.901,-136 253.9009,-133.5501 253.901,-138.4501"/>
</g>
<!-- subjects.FlyGenotype -->
<g id="node8" class="node">
<title>subjects.FlyGenotype</title>
<g id="a_node8"><a xlink:href="/table/subjects/FlyGenotype" xlink:title="FlyGenotype" target="_top">
<path fill="#006400" stroke="#006400" stroke-width="1.5" d="M22.3333,-121.5C22.3333,-121.5 82.6667,-121.5 82.6667,-121.5 85.8333,-121.5 89,-124.6667 89,-127.8333 89,-127.8333 89,-134.1667 89,-134.1667 89,-137.3333 85.8333,-140.5 82.6667,-140.5 82.6667,-140.5 22.3333,-140.5 22.3333,-140.5 19.1667,-140.5 16,-137.3333 16,-134.1667 16,-134.1667 16,-127.8333 16,-127.8333 16,-124.6667 19.1667,-121.5 22.3333,-121.5"/>
<text text-anchor="middle" x="52.5" y="-128.5" font-family="Helvetica,sans-Serif" font-size="10.00" fill="#ffffff">FlyGenotype</text>
</a>
</g>
</g>
<!-- subjects.FlyGenotype&#45;&gt;subjects.FlyCross -->
<g id="edge5" class="edge">
<title>subjects.FlyGenotype&#45;&gt;subjects.FlyCross</title>
<path fill="none" stroke="#006400" stroke-width="1.5" d="M89.173,-131C89.173,-131 129.2738,-131 129.2738,-131"/>
<polygon fill="#006400" stroke="#006400" stroke-width="1.5" points="129.2739,-133.4501 136.2738,-131 129.2738,-128.5501 129.2739,-133.4501"/>
</g>
<!-- subjects.FlyGenotype&#45;&gt;subjects.FlyStock -->
<g id="edge6" class="edge">
<title>subjects.FlyGenotype&#45;&gt;subjects.FlyStock</title>
<path fill="none" stroke="#006400" stroke-width="1.5" d="M85,-140.5847C85,-143.5244 85,-146 85,-146 85,-146 253.6309,-146 253.6309,-146"/>
<polygon fill="#006400" stroke="#006400" stroke-width="1.5" points="253.6309,-148.4501 260.6309,-146 253.6309,-143.5501 253.6309,-148.4501"/>
</g>
<!-- subjects.FlySubject -->
<g id="node9" class="node">
<title>subjects.FlySubject</title>
<g id="a_node9"><a xlink:href="/table/subjects/FlySubject" xlink:title="FlySubject" target="_top">
<path fill="#006400" stroke="#006400" stroke-width="1.5" d="M139.3333,-83.5C139.3333,-83.5 189.6667,-83.5 189.6667,-83.5 192.8333,-83.5 196,-86.6667 196,-89.8333 196,-89.8333 196,-96.1667 196,-96.1667 196,-99.3333 192.8333,-102.5 189.6667,-102.5 189.6667,-102.5 139.3333,-102.5 139.3333,-102.5 136.1667,-102.5 133,-99.3333 133,-96.1667 133,-96.1667 133,-89.8333 133,-89.8333 133,-86.6667 136.1667,-83.5 139.3333,-83.5"/>
<text text-anchor="middle" x="164.5" y="-90.5" font-family="Helvetica,sans-Serif" font-size="10.00" fill="#ffffff">FlySubject</text>
</a>
</g>
</g>
<!-- subjects.FlyGenotype&#45;&gt;subjects.FlySubject -->
<g id="edge7" class="edge">
<title>subjects.FlyGenotype&#45;&gt;subjects.FlySubject</title>
<path fill="none" stroke="#006400" stroke-width="1.5" d="M85,-121.411C85,-110.1538 85,-93 85,-93 85,-93 125.6224,-93 125.6224,-93"/>
<polygon fill="#006400" stroke="#006400" stroke-width="1.5" points="125.6224,-95.4501 132.6224,-93 125.6223,-90.5501 125.6224,-95.4501"/>
</g>
<!-- subjects.FlySubject&#45;&gt;imaging.TwoPhotonRecording -->
<g id="edge8" class="edge">
<title>subjects.FlySubject&#45;&gt;imaging.TwoPhotonRecording</title>
<path fill="none" stroke="#006400" stroke-width="1.5" d="M196.1607,-93C219.4261,-93 247,-93 247,-93 247,-93 247,-42.5995 247,-42.5995"/>
<polygon fill="#006400" stroke="#006400" stroke-width="1.5" points="249.4501,-42.5994 247,-35.5995 244.5501,-42.5995 249.4501,-42.5994"/>
</g>
<!-- university6.Student -->
<g id="node10" class="node">
<title>university6.Student</title>
<g id="a_node10"><a xlink:href="/table/university6/Student" xlink:title="Student" target="_top">
<path fill="#006400" stroke="#006400" stroke-width="1.5" d="M31.8333,-208.5C31.8333,-208.5 73.1667,-208.5 73.1667,-208.5 76.3333,-208.5 79.5,-211.6667 79.5,-214.8333 79.5,-214.8333 79.5,-221.1667 79.5,-221.1667 79.5,-224.3333 76.3333,-227.5 73.1667,-227.5 73.1667,-227.5 31.8333,-227.5 31.8333,-227.5 28.6667,-227.5 25.5,-224.3333 25.5,-221.1667 25.5,-221.1667 25.5,-214.8333 25.5,-214.8333 25.5,-211.6667 28.6667,-208.5 31.8333,-208.5"/>
<text text-anchor="middle" x="52.5" y="-215.5" font-family="Helvetica,sans-Serif" font-size="10.00" fill="#ffffff">Student</text>
</a>
</g>
</g>
</g>
</svg>
